<?xml version="1.0" standalone="no"?>
<!DOCTYPE svg PUBLIC "-//W3C//DTD SVG 20010904//EN"
 "http://www.w3.org/TR/2001/REC-SVG-20010904/DTD/svg10.dtd">
<svg version="1.0" xmlns="http://www.w3.org/2000/svg"
 width="512.000000pt" height="512.000000pt" viewBox="0 0 512.000000 512.000000"
 preserveAspectRatio="xMidYMid meet">

<g transform="translate(0.000000,512.000000) scale(0.100000,-0.100000)"
fill="#000000" stroke="none">
<path d="M2350 5063 c0 -60 -31 -124 -82 -167 -21 -19 -35 -37 -30 -40 5 -3
40 -8 78 -12 38 -4 82 -13 97 -21 30 -15 87 -96 87 -123 0 -37 -141 -78 -293
-87 -59 -3 -110 -11 -114 -16 -3 -6 6 -19 21 -30 33 -24 86 -126 86 -167 0
-16 4 -30 9 -30 5 0 46 21 92 46 102 57 201 100 250 109 33 6 39 4 59 -24 12
-17 32 -59 45 -92 l24 -60 -167 -81 c-92 -45 -198 -100 -237 -123 -83 -51
-216 -118 -287 -146 -50 -19 -284 -70 -483 -104 -132 -23 -262 -65 -404 -131
-64 -30 -125 -60 -136 -66 -11 -7 -67 -40 -125 -75 l-105 -63 -146 0 c-165 0
-212 -11 -269 -62 -33 -31 -35 -35 -33 -93 2 -33 0 -68 -3 -77 -3 -10 -51 -52
-107 -94 -105 -78 -126 -102 -127 -142 0 -36 17 -62 86 -127 57 -54 64 -65 64
-99 0 -47 -6 -57 -91 -164 -97 -119 -113 -152 -99 -202 14 -52 49 -85 154
-145 153 -88 166 -99 166 -146 0 -30 -12 -64 -45 -123 -61 -112 -60 -128 16
-217 70 -81 101 -103 179 -125 82 -24 137 -56 217 -123 69 -58 95 -103 78
-130 -7 -13 18 -62 41 -82 35 -28 137 -166 175 -235 28 -52 48 -75 70 -84 16
-7 32 -10 35 -7 3 3 1 47 -5 99 -6 51 -13 164 -16 250 -6 174 1 208 66 341 59
119 97 215 124 311 22 75 32 96 44 94 18 -4 18 -69 0 -150 -9 -40 -8 -56 9
-105 11 -32 25 -103 32 -159 16 -130 1 -185 -71 -255 -60 -59 -89 -105 -89
-145 0 -17 13 -66 28 -110 16 -43 34 -122 41 -174 29 -227 46 -278 106 -325
21 -17 86 -78 144 -138 l106 -107 175 0 c96 0 181 4 189 9 16 11 17 61 1 90
-6 12 -25 28 -43 37 -78 40 -243 194 -298 278 -34 51 -39 67 -39 117 0 89 25
201 61 269 25 49 57 85 153 171 134 121 179 150 197 132 9 -9 7 -27 -10 -75
-45 -126 -64 -212 -56 -254 3 -19 30 -56 71 -100 36 -38 72 -80 82 -94 9 -14
31 -43 48 -65 18 -22 45 -65 61 -95 34 -62 112 -123 182 -142 28 -7 64 -29 98
-60 48 -43 58 -48 102 -48 26 0 73 5 102 10 61 12 186 57 194 71 13 20 -79
110 -194 188 -67 45 -281 243 -313 289 -50 72 -52 95 -16 166 40 77 106 157
165 198 l46 31 136 -13 c196 -19 410 -17 495 4 38 9 115 23 170 31 56 8 139
22 185 32 l84 17 23 -29 c32 -41 40 -116 21 -215 -9 -52 -12 -93 -6 -113 32
-127 49 -225 51 -302 l2 -90 76 -80 c42 -45 84 -98 94 -119 11 -24 36 -49 70
-71 l53 -34 119 14 c66 8 127 15 136 15 10 0 25 11 34 25 30 46 -10 114 -105
180 -120 82 -188 229 -179 388 6 90 38 204 95 327 58 128 74 149 105 137 13
-4 70 -92 129 -197 8 -15 34 -58 56 -96 79 -134 96 -175 84 -201 -15 -33 -13
-83 4 -113 8 -14 14 -38 15 -54 0 -48 33 -127 61 -147 25 -18 30 -18 69 -4 52
18 49 20 140 -100 61 -81 74 -93 106 -98 50 -8 104 15 104 44 0 21 -36 85
-127 226 -61 93 -59 120 12 209 65 82 110 164 120 219 8 45 36 111 72 168 37
60 43 112 20 177 -30 84 -66 128 -176 215 -111 88 -119 104 -72 149 53 51 116
197 175 405 76 267 81 306 68 526 -5 105 -12 204 -15 220 -17 105 -30 161 -43
195 -17 43 -15 114 7 265 47 328 -167 601 -556 707 -94 26 -300 35 -391 18
-70 -13 -198 -54 -289 -93 -154 -65 -285 -202 -343 -359 -28 -74 -38 -195 -23
-273 7 -33 18 -100 26 -150 20 -127 36 -162 88 -185 23 -11 52 -20 63 -20 12
0 32 -8 45 -19 36 -28 115 -65 204 -96 44 -15 85 -32 90 -37 25 -24 -173 -158
-234 -158 -28 0 -69 44 -107 113 -11 22 -44 71 -73 110 -28 40 -93 142 -143
227 -50 85 -123 205 -163 265 -39 61 -82 128 -95 150 -13 22 -47 76 -76 120
-28 44 -65 107 -82 140 -16 33 -62 111 -101 173 -62 98 -121 203 -121 215 0
10 124 37 220 48 58 6 111 17 118 24 15 14 4 38 -44 97 -12 15 -32 57 -44 93
-12 37 -31 72 -43 80 -24 17 -18 22 -99 -79 -29 -36 -152 -106 -186 -106 -20
0 -66 50 -91 98 -15 28 -10 35 64 104 56 53 52 68 -16 68 -72 0 -155 22 -212
56 -32 19 -63 34 -68 34 -5 0 -9 -21 -9 -47z m56 -4 c14 -23 93 -48 172 -55
45 -4 82 -8 82 -10 0 -2 -22 -24 -50 -50 -27 -26 -50 -54 -50 -63 0 -26 58
-119 85 -137 23 -15 29 -15 91 10 82 33 142 74 183 123 17 20 32 35 34 32 3
-2 14 -34 26 -70 12 -37 37 -84 56 -107 19 -22 35 -45 35 -51 0 -7 -22 -11
-57 -11 -54 0 -254 -42 -281 -59 -9 -5 14 -54 89 -182 55 -96 124 -214 151
-264 28 -49 81 -137 119 -195 102 -158 136 -213 142 -233 4 -9 24 -43 46 -75
21 -32 46 -76 55 -97 9 -22 20 -42 25 -45 5 -3 19 -25 31 -50 13 -25 60 -103
106 -173 121 -185 148 -235 134 -252 -15 -18 -77 -38 -94 -32 -27 11 -399 613
-451 732 -15 33 -46 87 -69 120 -23 33 -67 103 -98 155 -30 52 -78 133 -106
180 -27 47 -71 126 -97 175 -26 50 -61 112 -78 138 -27 44 -33 48 -59 43 -51
-10 -233 -85 -281 -116 -56 -35 -77 -38 -77 -9 0 11 -16 48 -35 81 -20 33 -34
65 -33 70 2 5 35 12 73 14 78 5 160 24 248 56 68 24 71 36 26 108 -43 70 -77
91 -155 98 -72 5 -84 13 -50 31 38 21 76 89 76 138 0 31 4 43 14 43 8 0 18 -5
22 -11z m1793 -613 c8 -9 13 -63 14 -148 l2 -133 -80 -26 c-44 -14 -99 -36
-122 -47 -23 -12 -52 -22 -63 -22 -44 0 -267 183 -258 211 6 19 84 61 203 108
93 37 170 56 281 70 6 0 17 -5 23 -13z m-1460 -176 c13 -25 48 -86 77 -136 54
-91 65 -126 42 -141 -42 -26 -386 -171 -487 -204 l-64 -22 -36 43 c-57 68
-151 194 -151 202 0 4 24 20 53 34 28 15 63 34 77 44 26 18 86 51 255 141 55
29 116 61 135 71 50 27 71 20 99 -32z m2103 -32 c9 -7 39 -44 67 -82 58 -78
93 -177 95 -266 l1 -55 -70 -3 -70 -3 -33 54 c-17 29 -32 60 -32 68 0 9 20 30
45 48 49 35 54 49 27 74 -28 26 -66 36 -162 43 -49 4 -90 10 -90 13 0 3 34 26
76 51 41 25 80 51 86 58 6 6 18 12 27 12 10 0 24 -6 33 -12z m-408 -104 c32
-12 17 -33 -26 -37 -24 -2 39 -4 140 -5 165 -2 211 -9 166 -26 -9 -3 -26 -6
-39 -6 -13 0 -61 -14 -107 -30 -46 -17 -98 -36 -117 -41 -21 -7 -30 -14 -24
-20 6 -6 61 8 144 35 191 64 289 80 289 48 0 -13 -167 -89 -232 -106 -31 -8
-77 -18 -102 -21 -25 -4 -46 -11 -46 -16 0 -14 81 -11 167 7 109 23 125 23
138 -1 5 -11 22 -36 36 -55 67 -91 164 -326 185 -450 26 -156 37 -313 35 -490
-2 -166 -4 -183 -42 -338 -59 -243 -141 -396 -283 -530 -65 -62 -262 -162
-333 -170 -49 -5 -47 -11 -47 108 -1 68 -3 75 -21 75 -16 0 -21 -8 -23 -35 -4
-49 -20 -87 -59 -143 -18 -26 -33 -49 -33 -52 0 -2 -17 -31 -38 -64 -22 -33
-48 -86 -59 -118 -35 -100 -63 -197 -63 -218 0 -11 -11 -44 -25 -73 -35 -75
-38 -109 -20 -187 22 -98 55 -164 108 -220 56 -58 52 -71 -30 -101 -145 -53
-173 -53 -200 0 -8 17 -35 52 -59 78 -24 26 -44 55 -45 65 0 10 -1 77 -3 148
-2 99 -6 139 -20 170 -20 45 -16 123 10 163 10 15 12 28 5 40 -5 10 -7 36 -4
58 4 30 -1 52 -17 85 -13 24 -26 46 -29 49 -26 19 -112 136 -117 158 -10 47
-13 52 -28 52 -26 0 -28 -43 -7 -98 27 -69 26 -80 -6 -88 -97 -20 -138 -30
-222 -51 -134 -33 -442 -52 -583 -35 -57 7 -177 17 -268 22 -393 22 -398 22
-365 50 8 7 15 17 15 22 0 6 22 35 50 65 48 52 58 72 44 86 -4 3 -68 -56 -143
-132 -75 -76 -156 -153 -181 -170 -152 -104 -185 -133 -227 -192 -85 -122 -95
-149 -101 -284 -7 -168 -3 -181 73 -265 36 -38 65 -74 65 -80 0 -5 28 -29 62
-52 54 -37 60 -43 40 -46 -13 -2 -35 1 -51 6 -19 7 -47 5 -98 -9 -74 -18 -102
-16 -156 12 -44 24 -114 96 -150 156 -38 63 -43 84 -56 243 -7 81 -17 122 -41
180 -42 102 -37 130 41 218 94 105 101 128 89 258 -5 60 -17 145 -25 189 -9
44 -16 123 -16 175 0 52 0 122 0 155 -1 33 2 88 6 123 6 53 5 66 -11 83 -14
15 -16 25 -8 46 14 39 137 139 229 185 44 23 97 49 117 59 62 32 193 71 308
93 47 10 108 21 135 27 104 20 336 29 465 18 141 -13 357 -6 482 15 46 8 112
17 148 21 36 3 115 17 175 30 61 13 133 27 160 31 70 9 184 55 292 117 139 79
259 222 251 299 -3 30 -1 32 45 44 90 23 79 37 -13 19 -110 -23 -253 -35 -402
-35 l-143 1 49 45 c53 49 55 62 5 45 -18 -6 -54 -11 -81 -11 -45 0 -49 2 -46
21 2 15 16 25 48 36 25 8 52 22 60 30 13 14 10 15 -32 10 -25 -4 -52 -8 -58
-9 -33 -8 -12 27 70 114 169 180 367 340 469 379 94 35 316 62 365 43z m-2580
-234 c37 -45 138 -201 133 -206 -10 -10 -148 -45 -249 -64 -59 -10 -132 -27
-163 -35 -31 -9 -62 -14 -69 -12 -20 8 -176 196 -176 211 0 30 66 53 252 91
68 14 139 29 158 34 65 17 87 13 114 -19z m1786 -89 c0 -11 -94 -97 -122 -112
-13 -7 -19 -6 -22 3 -2 7 -9 27 -14 44 -6 17 -7 36 -3 42 3 5 38 14 76 20 39
5 73 10 78 11 4 0 7 -3 7 -8z m-2330 -19 c0 -8 59 -102 70 -112 43 -38 110
-153 110 -189 0 -8 -69 -41 -249 -121 -119 -52 -164 -78 -242 -142 -26 -21
-65 -45 -88 -53 -22 -7 -68 -32 -101 -54 -34 -23 -65 -41 -70 -41 -24 0 -114
108 -151 181 l-40 81 53 50 c141 132 265 216 466 314 167 82 242 108 242 86z
m1746 -69 c30 -40 97 -148 135 -221 16 -29 20 -45 13 -52 -6 -6 -64 -33 -130
-60 -65 -26 -180 -76 -254 -110 -171 -79 -175 -80 -188 -43 -5 15 -46 84 -91
153 -44 68 -77 127 -73 131 4 4 50 25 102 47 82 34 303 133 395 177 46 21 60
18 91 -22z m-2445 -213 c33 -18 21 -44 -56 -124 -68 -70 -74 -79 -62 -98 22
-39 141 -172 215 -241 45 -43 54 -72 22 -82 -25 -8 -65 -56 -96 -116 -22 -45
-28 -49 -59 -49 -22 0 -94 26 -191 70 -217 97 -294 157 -294 226 0 28 8 40 52
75 29 22 77 53 107 69 91 46 106 68 106 155 0 40 2 75 5 78 3 3 21 14 40 26
28 16 51 21 113 21 43 0 87 -5 98 -10z m920 -72 c9 -7 33 -35 54 -61 l39 -48
-30 -25 c-67 -57 -214 -150 -300 -191 -106 -50 -186 -69 -326 -79 -87 -6 -98
-5 -104 10 -13 34 171 198 307 274 31 18 86 43 123 57 37 14 89 36 114 50 52
27 100 32 123 13z m687 -69 c20 -33 65 -104 99 -157 48 -75 59 -99 48 -105
-33 -18 -210 -48 -322 -54 -160 -8 -169 -4 -229 101 -26 44 -58 95 -71 112
-40 53 -45 49 137 98 132 36 251 64 278 65 18 1 31 -13 60 -60z m1002 21 c0
-11 4 -20 8 -20 5 0 37 -43 73 -96 35 -53 74 -110 86 -127 21 -31 53 -117 53
-143 0 -17 -48 -29 -190 -49 -296 -41 -392 -46 -665 -34 -311 14 -377 8 -650
-58 -178 -43 -254 -71 -316 -114 -14 -10 -65 -41 -113 -68 -83 -48 -151 -100
-221 -167 -18 -17 -47 -36 -66 -43 -19 -7 -51 -21 -71 -32 -44 -23 -57 -24
-94 -4 -21 11 -62 15 -146 15 -96 0 -118 3 -118 14 0 18 48 55 109 86 24 12
74 50 111 85 70 65 94 77 204 95 101 17 162 33 200 52 22 11 92 71 156 132
137 132 164 145 283 130 237 -29 597 29 815 132 53 25 106 49 117 54 11 4 45
19 75 33 175 80 210 95 255 111 28 9 57 21 65 26 24 16 40 12 40 -10z m-1510
-127 c22 -29 100 -158 100 -167 0 -2 -24 -10 -53 -16 -69 -14 -113 -42 -178
-115 -79 -88 -129 -134 -176 -162 -57 -33 -176 -53 -353 -57 -99 -3 -161 -10
-195 -21 -96 -32 -270 -122 -308 -160 l-38 -38 -29 28 c-57 54 -44 72 122 164
58 33 66 45 84 131 20 101 117 150 352 175 76 8 151 18 167 21 43 9 181 81
320 168 66 41 130 75 142 75 12 1 30 -11 43 -26z m-1306 -430 c90 -42 131 -56
163 -55 63 1 55 -22 -21 -58 -84 -40 -113 -64 -121 -100 -11 -51 2 -85 43
-106 37 -20 37 -20 46 -102 10 -97 -1 -134 -44 -152 -25 -10 -42 -4 -196 72
-145 71 -174 89 -202 126 -17 24 -32 55 -32 68 0 40 36 99 104 172 78 83 116
138 116 168 0 13 5 24 12 24 6 0 66 -25 132 -57z m606 -138 c0 -17 -8 -29 -25
-37 -14 -6 -25 -17 -25 -23 0 -13 -152 -95 -175 -95 -7 0 -15 19 -18 48 -7 55
3 68 78 106 36 18 66 26 108 26 54 0 57 -1 57 -25z m-270 -140 c12 -22 11 -30
-3 -61 l-17 -35 -58 6 c-68 8 -112 23 -112 39 0 14 34 47 65 64 11 6 41 12 66
12 39 0 48 -4 59 -25z m-122 -110 c48 -10 129 -16 229 -16 85 0 165 -4 179 -9
35 -14 40 -51 14 -105 -12 -26 -32 -58 -44 -73 -12 -15 -35 -48 -50 -74 -49
-86 -107 -96 -270 -50 -115 33 -113 30 -121 155 -3 45 -8 106 -10 135 -3 28
-4 52 -3 52 2 0 36 -7 76 -15z m703 -12 c14 -35 5 -115 -16 -151 -14 -25 -49
-120 -125 -341 -16 -46 -35 -93 -43 -105 -23 -35 -88 -201 -102 -261 -11 -48
-11 -67 1 -117 15 -61 19 -308 5 -308 -3 0 -22 30 -41 68 -18 37 -59 94 -90
127 -70 74 -96 118 -99 170 -2 22 -8 46 -14 54 -7 9 -12 48 -11 100 1 71 8
105 39 196 42 125 58 156 164 313 42 63 84 129 93 147 28 53 148 132 206 134
16 1 26 -7 33 -26z m-863 -279 c31 -20 82 -59 112 -88 65 -62 116 -100 180
-135 l47 -26 -12 -47 c-6 -25 -29 -72 -51 -103 -36 -54 -40 -56 -74 -52 -69 9
-257 98 -310 146 -75 68 -89 132 -46 211 13 25 34 64 46 88 12 23 29 42 37 42
7 0 40 -16 71 -36z m232 -69 c46 -14 98 -25 116 -25 18 0 35 -3 37 -7 7 -11
-40 -113 -51 -113 -32 0 -217 144 -206 161 7 13 10 12 104 -16z m4189 -115
c44 -34 92 -74 108 -90 26 -28 58 -102 70 -161 5 -25 -15 -77 -42 -109 -14
-17 -44 -109 -71 -215 -22 -88 -48 -137 -85 -159 -30 -18 -30 -18 -94 25 -36
24 -65 45 -65 48 0 3 9 17 20 31 11 14 20 41 20 61 0 20 12 63 26 95 23 52 25
67 19 130 -6 62 -11 76 -38 104 -35 36 -152 95 -214 108 -56 12 -55 36 3 56
42 14 94 42 209 111 22 14 43 25 47 25 4 0 43 -27 87 -60z m-491 -183 c22 -34
54 -89 71 -122 17 -33 61 -107 96 -165 71 -117 78 -145 39 -160 -58 -23 -71
-8 -218 247 -42 73 -85 147 -96 165 -11 18 -20 41 -20 50 0 25 28 48 60 48 24
0 34 -10 68 -63z m184 1 c111 -44 178 -116 178 -191 0 -68 -51 -157 -91 -157
-24 0 -64 54 -151 205 -41 72 -83 143 -93 159 l-19 29 49 -7 c28 -4 85 -21
127 -38z m-2208 -155 l129 -6 -34 -31 c-19 -16 -52 -57 -74 -90 -22 -34 -57
-84 -77 -112 l-36 -51 17 -36 c18 -41 145 -175 237 -252 115 -95 174 -159 174
-188 0 -9 -147 -44 -223 -53 -40 -5 -63 -2 -89 10 -60 29 -140 123 -214 253
-27 47 -54 90 -59 96 -50 56 -77 110 -88 171 -10 62 -9 73 12 129 12 34 27 80
33 102 6 22 12 46 14 53 4 14 79 15 278 5z m2372 -376 c30 -18 74 -54 74 -61
0 -8 -131 -183 -160 -213 -11 -13 -25 -23 -30 -23 -21 0 -36 57 -46 177 l-6
70 37 31 c39 35 91 42 131 19z m77 -224 c13 -15 71 -107 138 -218 22 -36 15
-50 -29 -58 -38 -8 -38 -7 -124 108 -71 96 -82 156 -34 175 30 12 31 12 49 -7z
m-576 -206 c54 -55 67 -93 41 -115 -17 -13 -197 -26 -242 -18 -42 8 -96 51
-96 76 0 18 25 31 95 49 22 6 58 22 80 36 22 13 46 25 54 25 8 0 38 -24 68
-53z m-1446 -9 c78 -36 75 -65 -9 -89 -26 -7 -86 -13 -134 -14 -73 0 -91 3
-115 21 -57 43 -44 58 72 86 87 22 131 21 186 -4z m-976 -167 c25 -5 55 -21
80 -45 39 -35 39 -37 21 -51 -32 -24 -199 -20 -252 5 -51 25 -81 57 -68 70 23
23 147 35 219 21z"/>
<path d="M2913 4754 c-6 -16 11 -34 33 -34 17 0 37 27 29 40 -10 16 -55 12
-62 -6z m47 -2 c0 -14 -11 -21 -26 -15 -8 3 -11 9 -8 14 7 11 34 12 34 1z"/>
<path d="M2716 4685 c-8 -21 29 -39 54 -25 27 14 14 40 -20 40 -15 0 -30 -7
-34 -15z m49 -5 c3 -5 -3 -10 -14 -10 -12 0 -21 5 -21 10 0 6 6 10 14 10 8 0
18 -4 21 -10z"/>
<path d="M2473 4613 c-19 -7 -16 -31 6 -42 13 -7 23 -6 37 4 19 15 19 15 0 30
-21 16 -24 16 -43 8z m37 -23 c0 -5 -7 -10 -15 -10 -8 0 -15 5 -15 10 0 6 7
10 15 10 8 0 15 -4 15 -10z"/>
<path d="M2253 4534 c-5 -14 11 -33 28 -34 15 0 41 28 35 38 -11 18 -56 14
-63 -4z m47 -4 c0 -5 -7 -10 -15 -10 -8 0 -15 5 -15 10 0 6 7 10 15 10 8 0 15
-4 15 -10z"/>
<path d="M4115 3840 c-17 -5 -44 -24 -60 -41 -23 -25 -26 -30 -10 -24 11 4 43
11 70 15 28 5 64 13 80 20 17 6 47 9 68 6 38 -6 51 6 20 19 -31 11 -137 15
-168 5z"/>
<path d="M3845 1408 c4 -18 14 -40 22 -48 14 -13 15 -11 8 25 -8 46 -12 55
-26 55 -7 0 -8 -13 -4 -32z"/>
<path d="M1424 1353 c-3 -10 -10 -26 -15 -36 -13 -24 -3 -35 16 -16 19 19 30
69 16 69 -6 0 -14 -8 -17 -17z"/>
<path d="M4870 1686 c0 -8 15 -26 33 -40 35 -26 67 -34 67 -16 0 6 -4 10 -8
10 -5 0 -24 14 -42 30 -37 33 -50 37 -50 16z"/>
<path d="M2177 1323 c-3 -21 -8 -46 -12 -55 -11 -28 11 -21 23 7 14 30 16 85
3 85 -4 0 -11 -17 -14 -37z"/>
<path d="M1495 341 c55 -25 131 -93 149 -132 5 -12 7 -12 12 0 18 39 94 107
149 132 l60 28 -215 0 -215 0 60 -28z"/>
<path d="M1960 190 l0 -180 51 0 51 0 -4 70 -3 70 62 0 c79 0 93 -13 93 -86
l0 -54 45 0 45 0 0 66 c0 56 -3 69 -23 86 l-23 20 28 28 c52 52 27 125 -50
148 -22 7 -92 12 -156 12 l-116 0 0 -180z m224 110 c20 -7 26 -16 26 -40 0
-37 -27 -50 -101 -50 l-49 0 0 50 0 50 49 0 c27 0 61 -4 75 -10z"/>
<path d="M2400 190 l0 -180 165 0 165 0 0 30 0 30 -115 0 -115 0 0 45 0 45
105 0 105 0 0 35 0 35 -105 0 -105 0 0 40 0 40 110 0 110 0 0 30 0 30 -160 0
-160 0 0 -180z"/>
<path d="M2810 190 l0 -180 120 0 c129 0 173 11 218 53 37 34 52 71 52 127 0
128 -81 180 -280 180 l-110 0 0 -180z m212 110 c50 -14 78 -52 78 -106 0 -90
-39 -124 -140 -124 l-60 0 0 113 c0 63 3 117 7 120 10 10 73 8 115 -3z"/>
<path d="M3290 190 l0 -180 165 0 165 0 0 30 0 30 -120 0 -120 0 0 45 0 45
110 0 110 0 0 35 0 35 -111 0 -110 0 3 38 3 37 113 3 112 3 0 29 0 30 -160 0
-160 0 0 -180z"/>
<path d="M3800 354 c-74 -32 -113 -90 -113 -169 0 -28 8 -65 17 -82 57 -112
251 -139 353 -50 102 89 80 242 -42 298 -50 23 -165 25 -215 3z m169 -58 c34
-18 51 -54 51 -109 0 -57 -18 -89 -63 -111 -100 -48 -197 42 -167 154 19 69
108 102 179 66z"/>
<path d="M4264 344 c54 -19 119 -71 150 -119 14 -21 26 -34 26 -28 0 5 19 31
41 57 41 46 75 69 134 93 24 9 -9 11 -180 12 -194 0 -207 -2 -171 -15z"/>
<path d="M1845 311 c-27 -43 -95 -95 -151 -114 l-35 -13 38 -13 c58 -21 121
-68 148 -112 14 -21 26 -39 28 -39 1 0 2 74 2 165 0 91 -1 165 -2 165 -2 0
-14 -18 -28 -39z"/>
<path d="M4210 180 l0 -174 29 45 c28 45 105 105 148 115 29 8 29 20 0 28 -43
10 -116 67 -146 113 l-31 46 0 -173z"/>
<path d="M1430 187 c0 -87 2 -157 4 -157 2 0 13 15 24 34 22 37 86 84 146 108
l39 15 -29 7 c-46 12 -124 66 -155 109 l-29 40 0 -156z"/>
<path d="M4632 306 c-23 -39 -88 -90 -138 -108 -19 -7 -34 -14 -34 -18 0 -3
21 -14 47 -24 44 -19 115 -80 140 -121 9 -16 12 12 12 143 1 89 -1 162 -3 162
-2 0 -13 -16 -24 -34z"/>
<path d="M1636 152 c-11 -34 -81 -95 -141 -123 l-60 -28 215 0 215 0 -60 28
c-56 26 -145 106 -145 131 0 17 -18 11 -24 -8z"/>
<path d="M4426 155 c-15 -44 -92 -110 -161 -138 -39 -15 -32 -16 170 -16 208
0 210 1 165 17 -43 16 -133 95 -156 137 -11 20 -11 20 -18 0z"/>
</g>
</svg>
