<?xml version="1.0" standalone="no"?>
<!DOCTYPE svg PUBLIC "-//W3C//DTD SVG 20010904//EN"
 "http://www.w3.org/TR/2001/REC-SVG-20010904/DTD/svg10.dtd">
<svg version="1.0" xmlns="http://www.w3.org/2000/svg"
 width="1423.000000pt" height="1598.000000pt" viewBox="0 0 1423.000000 1598.000000"
 preserveAspectRatio="xMidYMid meet">

<g transform="translate(0.000000,1598.000000) scale(0.100000,-0.100000)"
fill="#000000" stroke="none">
<path d="M6536 15944 c-3 -9 -6 -77 -6 -153 0 -169 -17 -237 -100 -407 -60
-123 -109 -186 -205 -261 -29 -22 -37 -34 -29 -42 19 -20 117 -43 221 -51 184
-14 265 -44 345 -127 42 -44 138 -208 138 -236 0 -7 14 -41 31 -76 27 -56 29
-66 19 -92 -7 -16 -26 -41 -42 -54 -68 -57 -272 -138 -471 -186 -66 -16 -257
-38 -437 -49 -96 -6 -180 -16 -187 -22 -25 -20 -12 -47 60 -126 80 -87 110
-140 184 -327 42 -107 48 -131 53 -220 3 -55 9 -106 13 -112 13 -21 51 -15 88
12 19 15 68 47 109 73 41 25 110 72 153 104 198 146 464 287 612 324 l100 25
16 -23 c25 -33 146 -277 158 -318 5 -19 26 -86 45 -149 27 -86 33 -117 25
-127 -41 -49 -460 -314 -636 -402 -105 -52 -221 -130 -460 -309 -106 -79 -234
-168 -285 -199 -51 -31 -117 -73 -148 -94 -184 -124 -434 -254 -585 -304 -114
-38 -686 -179 -980 -241 -278 -59 -447 -103 -545 -139 -242 -91 -313 -122
-460 -196 -91 -45 -178 -95 -195 -111 -16 -15 -64 -46 -106 -68 -255 -134
-325 -178 -459 -286 -115 -92 -353 -268 -462 -340 -29 -19 -63 -42 -74 -50
-19 -14 -60 -15 -375 -4 -393 12 -393 12 -563 -53 -70 -27 -90 -41 -161 -112
-127 -126 -135 -140 -142 -237 -3 -46 -1 -130 6 -185 11 -102 2 -206 -20 -228
-5 -6 -9 -18 -9 -27 0 -19 -200 -216 -498 -490 -91 -84 -124 -149 -130 -261
-5 -82 11 -161 49 -246 12 -25 74 -100 153 -182 160 -168 191 -221 210 -360
18 -128 -1 -204 -77 -315 -211 -311 -343 -529 -419 -695 -54 -118 -58 -151
-33 -272 18 -88 83 -225 128 -270 71 -72 169 -150 327 -261 447 -315 439 -306
440 -487 0 -58 -5 -123 -11 -145 -6 -22 -49 -121 -96 -220 -138 -293 -137
-290 -137 -435 -1 -148 6 -167 105 -302 35 -47 106 -143 156 -212 87 -117 99
-129 192 -190 55 -37 106 -66 113 -66 8 0 18 -4 24 -10 5 -5 56 -26 112 -45
56 -20 122 -48 146 -63 24 -15 77 -47 117 -72 94 -57 402 -364 467 -464 l45
-70 1 -146 1 -146 48 -80 c27 -43 93 -140 148 -214 131 -177 279 -426 373
-627 42 -90 76 -165 76 -168 0 -3 14 -34 31 -70 24 -51 42 -73 90 -110 44 -32
70 -45 94 -45 33 0 34 2 41 47 5 32 0 92 -15 186 -20 119 -24 202 -32 600 -6
254 -14 494 -20 532 -28 209 -21 364 26 555 34 138 171 535 234 677 97 221
230 663 286 948 34 172 55 246 72 252 23 9 61 -14 77 -45 12 -23 13 -42 6 -88
-5 -33 -14 -108 -21 -169 -6 -60 -20 -154 -30 -208 -25 -131 -24 -195 7 -302
52 -184 65 -253 84 -445 6 -58 15 -134 20 -170 27 -187 32 -242 25 -330 -11
-162 -44 -272 -132 -440 -31 -58 -68 -109 -118 -160 -79 -82 -117 -134 -163
-225 -43 -87 -52 -129 -53 -252 0 -99 3 -119 39 -233 22 -69 52 -174 66 -235
15 -60 31 -121 36 -135 18 -49 69 -468 90 -745 6 -82 20 -198 31 -256 20 -112
77 -302 107 -356 30 -56 125 -163 192 -217 135 -110 235 -229 301 -359 23 -45
113 -160 189 -242 26 -28 59 -69 73 -92 38 -60 68 -67 255 -61 85 3 269 0 410
-7 199 -10 267 -10 306 0 92 21 141 58 135 103 -1 9 1 25 5 34 4 9 4 23 0 30
-5 7 -7 38 -5 69 2 48 -1 60 -23 86 -14 17 -26 40 -26 51 0 24 -46 64 -111 97
-46 24 -241 198 -282 253 -11 15 -46 54 -76 88 -31 33 -90 102 -131 154 -41
51 -97 118 -124 149 -27 31 -61 74 -75 96 -14 22 -45 65 -68 96 -55 75 -159
296 -174 370 -9 45 -9 84 0 160 6 55 11 141 11 193 0 51 4 117 9 147 5 30 14
95 21 144 23 174 75 350 144 485 18 36 36 78 40 94 10 41 47 92 183 247 288
333 527 587 617 658 53 42 97 42 127 0 20 -29 21 -35 10 -87 -22 -102 -29
-125 -80 -277 -28 -82 -54 -178 -57 -213 -4 -34 -11 -65 -15 -68 -5 -3 -9 -23
-9 -45 0 -21 -4 -39 -10 -39 -5 0 -10 -13 -10 -29 0 -17 -4 -33 -10 -36 -6 -3
-10 -37 -10 -75 0 -38 -5 -72 -10 -75 -13 -8 -13 -162 0 -170 6 -3 10 -19 10
-36 0 -16 4 -37 9 -47 5 -9 16 -33 25 -53 8 -19 24 -43 36 -54 11 -10 20 -24
20 -30 0 -7 7 -18 15 -25 9 -7 25 -32 35 -56 11 -23 40 -59 65 -80 25 -20 55
-56 65 -79 10 -23 26 -48 35 -55 8 -7 15 -18 15 -24 0 -7 16 -27 35 -46 19
-19 35 -39 35 -45 0 -7 9 -20 20 -30 11 -10 20 -25 20 -34 0 -9 23 -51 50 -94
28 -43 50 -80 50 -83 0 -3 20 -33 44 -67 49 -70 176 -334 176 -366 0 -40 38
-96 122 -177 138 -135 263 -219 373 -252 41 -12 94 -38 125 -61 54 -38 71 -57
137 -153 42 -60 113 -127 136 -128 9 0 17 -4 17 -10 0 -5 13 -10 29 -10 17 0
33 -5 36 -10 12 -19 262 12 413 51 41 11 105 35 142 54 38 19 98 46 133 59 77
29 166 73 190 94 27 24 20 62 -27 143 -57 98 -340 397 -476 504 -35 28 -100
88 -144 135 -45 46 -130 136 -191 200 -60 64 -144 156 -185 205 -41 50 -104
124 -140 167 -36 42 -80 96 -98 120 -18 23 -50 66 -72 93 -45 56 -139 229
-157 290 -6 22 -17 73 -24 114 -15 89 -7 126 55 256 24 50 54 115 66 145 35
89 68 152 106 205 156 216 192 261 267 326 45 39 94 84 109 99 40 41 123 54
213 34 39 -9 88 -19 110 -21 22 -3 45 -9 51 -14 7 -5 70 -14 140 -19 71 -6
171 -16 223 -24 67 -9 105 -10 130 -4 22 6 82 7 151 3 161 -11 401 -12 490 -2
90 10 181 28 315 63 55 14 129 32 164 40 36 8 85 22 110 30 25 9 73 20 106 24
69 9 153 25 240 47 33 8 96 18 140 23 44 5 107 18 140 30 89 33 171 52 252 57
l71 5 18 -39 c10 -21 26 -50 35 -64 31 -45 57 -131 68 -229 24 -217 24 -225
-9 -425 -10 -60 -19 -119 -41 -267 -8 -59 -8 -89 1 -125 7 -26 16 -97 20 -158
5 -76 19 -154 44 -250 66 -249 83 -390 91 -755 l5 -265 28 -37 c119 -159 180
-239 211 -273 71 -79 251 -379 251 -419 0 -15 6 -39 14 -54 15 -28 119 -125
191 -177 22 -16 55 -42 73 -57 38 -32 74 -35 167 -13 33 8 80 15 104 15 24 0
60 4 80 9 20 6 104 17 186 26 134 14 213 27 268 42 10 3 33 37 53 81 l36 77
-22 90 c-27 109 -62 189 -99 224 -15 14 -46 51 -68 82 -23 31 -64 72 -91 92
-79 58 -264 257 -306 327 -20 36 -54 92 -74 126 -21 34 -43 85 -50 115 -7 30
-21 83 -32 119 -50 174 -80 291 -80 318 0 16 -7 51 -15 78 -20 68 -21 391 -1
472 18 72 43 184 61 282 8 42 27 107 44 146 35 86 51 157 51 228 0 68 25 147
66 211 18 28 35 68 39 90 4 22 25 78 48 124 22 46 42 105 45 130 3 25 18 66
33 91 15 25 37 64 48 87 19 42 62 73 99 73 45 0 99 -72 132 -175 7 -22 30 -74
50 -116 21 -41 50 -104 64 -139 15 -36 46 -94 70 -130 24 -36 55 -96 70 -135
15 -38 45 -106 66 -150 22 -45 40 -84 40 -89 0 -4 50 -110 110 -236 60 -125
110 -233 110 -240 0 -6 16 -48 35 -92 19 -44 37 -106 41 -138 5 -50 3 -63 -15
-88 -19 -27 -21 -44 -21 -165 0 -125 2 -142 30 -220 21 -60 30 -104 30 -149 0
-74 19 -178 49 -263 11 -33 21 -69 21 -79 0 -11 10 -51 22 -89 20 -62 29 -74
73 -107 27 -20 56 -44 64 -53 20 -24 36 -22 147 23 115 47 148 48 172 5 9 -16
59 -97 111 -180 122 -195 138 -222 204 -336 31 -53 70 -110 86 -126 37 -37 98
-55 183 -55 77 1 125 21 176 75 28 29 35 44 39 94 l5 58 -116 227 c-63 125
-132 267 -152 315 -39 94 -106 225 -160 308 -51 81 -68 143 -61 233 6 90 29
148 92 236 25 35 45 66 45 70 0 3 20 37 43 74 114 175 172 280 231 416 41 92
55 149 101 391 18 99 35 165 46 180 4 6 18 43 33 83 14 41 55 133 90 205 71
146 111 279 121 403 7 85 6 93 -72 344 -37 119 -105 251 -178 345 -35 44 -169
186 -299 315 -130 129 -245 249 -256 266 -42 66 -24 122 85 264 50 67 107 169
128 230 9 25 28 71 43 104 15 32 30 73 35 90 4 17 28 87 52 156 71 199 99 288
112 355 3 17 10 46 15 65 5 19 13 55 19 80 66 302 71 321 90 396 6 23 11 52
11 64 0 13 9 49 20 79 31 89 59 231 75 379 8 75 19 148 24 162 9 24 19 79 41
221 15 97 13 752 -2 767 -9 9 -11 82 -10 274 1 145 -3 290 -9 323 -5 33 -14
85 -19 115 -6 30 -11 82 -13 115 -1 33 -8 70 -15 82 -6 12 -12 35 -12 52 0 16
-4 33 -10 36 -6 4 -10 55 -10 121 0 69 -4 114 -10 114 -6 0 -10 32 -10 75 0
43 -4 75 -10 75 -5 0 -10 9 -10 19 0 11 -4 23 -10 26 -5 3 -10 17 -10 30 0 13
-4 27 -10 30 -5 3 -10 17 -10 29 0 13 -7 29 -15 36 -14 11 -15 38 -11 184 9
315 22 482 38 492 4 3 8 41 8 84 0 43 4 81 9 84 8 5 14 70 28 305 3 62 1 144
-6 200 -7 53 -14 121 -15 151 -4 64 -6 74 -53 235 -57 198 -113 356 -147 420
-144 266 -374 563 -543 701 -68 55 -216 159 -309 216 -100 62 -312 168 -335
168 -8 0 -19 4 -24 9 -11 10 -134 53 -225 78 -252 70 -632 102 -820 69 -52
-10 -111 -20 -130 -23 -90 -14 -258 -67 -390 -123 -80 -34 -181 -75 -225 -93
-44 -17 -129 -59 -190 -92 -60 -33 -123 -67 -140 -75 -55 -27 -119 -73 -215
-155 -52 -45 -107 -90 -122 -100 -16 -9 -28 -22 -28 -27 0 -5 -38 -58 -84
-116 -181 -231 -303 -452 -384 -697 -75 -223 -104 -395 -118 -684 -9 -167 0
-244 77 -671 4 -25 8 -71 8 -103 1 -32 8 -104 16 -160 9 -56 20 -133 26 -172
5 -38 14 -88 19 -110 15 -69 71 -213 92 -241 29 -36 211 -124 258 -124 43 0
117 -44 175 -105 56 -58 303 -202 465 -270 302 -127 320 -138 320 -194 0 -30
-10 -48 -52 -99 -193 -225 -503 -431 -634 -420 -31 3 -40 9 -60 46 -13 23 -24
48 -24 56 0 7 -11 23 -25 36 -14 13 -25 29 -25 35 0 6 -18 29 -40 50 -31 30
-40 47 -40 73 0 20 -14 57 -35 93 -19 33 -35 65 -35 70 0 6 -8 23 -18 37 -10
15 -24 41 -31 57 -8 17 -19 41 -25 55 -14 31 -111 189 -180 290 -27 41 -78
138 -112 215 -153 348 -192 432 -289 620 -57 110 -118 236 -135 280 -30 76
-149 312 -210 415 -29 50 -237 462 -352 700 -36 74 -93 182 -127 240 -34 58
-61 109 -61 113 0 4 -24 56 -53 115 -49 98 -89 192 -177 419 -18 45 -55 122
-83 170 -76 133 -352 701 -408 842 -28 68 -59 141 -69 162 -11 21 -20 43 -20
48 0 29 254 117 400 140 41 6 102 16 135 21 65 10 163 24 290 40 84 11 115 25
140 64 15 23 14 29 -30 121 -25 53 -67 128 -94 166 -63 89 -104 189 -136 326
-53 225 -89 304 -157 339 -29 15 -32 15 -65 -13 -38 -30 -50 -50 -113 -186
-36 -78 -54 -101 -144 -190 -81 -81 -127 -117 -223 -174 -119 -71 -210 -113
-245 -113 -18 0 -168 213 -188 266 -6 14 -24 54 -41 89 -29 61 -30 64 -14 101
22 53 120 178 179 227 67 56 136 151 136 187 0 53 -21 62 -180 76 -302 26
-393 54 -562 177 -55 39 -120 89 -145 110 -48 40 -68 46 -77 21z m173 -198
c73 -69 153 -115 246 -139 79 -20 223 -37 319 -37 118 0 142 -22 85 -76 -30
-28 -150 -170 -216 -257 -21 -27 -33 -54 -33 -74 0 -32 41 -153 86 -250 33
-73 130 -218 166 -248 50 -42 56 -41 244 51 231 112 414 268 520 441 47 77 66
93 92 77 12 -8 19 -30 24 -76 7 -72 51 -232 90 -328 36 -87 162 -299 187 -314
6 -4 11 -22 11 -40 0 -46 -36 -61 -128 -52 -113 11 -256 -17 -522 -104 -47
-15 -101 -31 -120 -35 -19 -4 -58 -18 -87 -31 -28 -13 -63 -28 -78 -34 -14 -5
-28 -16 -31 -23 -3 -8 27 -81 67 -163 80 -168 111 -235 176 -379 25 -55 64
-140 88 -190 24 -49 53 -112 65 -140 13 -27 65 -137 116 -243 52 -106 94 -194
94 -197 0 -2 11 -28 24 -57 13 -29 38 -89 56 -132 31 -80 95 -218 174 -376 43
-86 57 -112 161 -300 59 -105 215 -424 215 -438 0 -4 29 -59 65 -122 36 -63
77 -149 91 -190 36 -101 93 -228 119 -265 12 -16 36 -58 53 -92 17 -34 35 -70
41 -80 22 -42 81 -173 81 -182 0 -10 37 -107 51 -133 5 -10 9 -23 9 -28 0 -6
13 -28 29 -48 23 -30 64 -122 111 -247 14 -39 284 -569 300 -590 4 -5 47 -86
95 -180 48 -93 105 -203 127 -243 22 -41 48 -99 58 -130 10 -32 32 -82 49
-112 43 -78 42 -120 -6 -159 -49 -40 -140 -88 -184 -96 -52 -10 -90 13 -119
72 -14 26 -42 77 -63 112 -21 35 -56 100 -78 145 -21 45 -53 106 -70 136 -18
30 -68 127 -111 215 -44 88 -114 221 -154 296 -41 74 -103 204 -138 287 -35
83 -81 184 -103 224 -22 41 -75 150 -118 243 -42 94 -112 238 -155 320 -90
173 -143 298 -226 540 -37 108 -82 201 -177 365 -33 58 -98 184 -145 280 -46
96 -119 247 -162 335 -43 88 -97 205 -120 260 -22 55 -97 213 -165 350 -140
283 -195 405 -195 430 0 9 -29 79 -65 155 -36 76 -65 143 -65 149 0 6 -4 19
-9 29 -5 9 -13 28 -19 42 -42 101 -181 365 -198 376 -19 13 -34 8 -160 -47
-234 -102 -556 -266 -622 -316 -35 -26 -83 -63 -105 -81 -85 -67 -120 -92
-132 -92 -22 0 -38 30 -37 68 2 46 -20 115 -68 212 -20 41 -45 100 -55 130
-22 68 -42 109 -66 135 -26 29 -35 78 -16 93 9 8 68 14 163 16 160 5 235 18
384 66 52 16 99 30 103 30 16 0 234 88 307 124 40 20 79 44 86 54 28 36 17
111 -28 206 -126 263 -129 267 -203 327 -107 87 -167 109 -295 109 -38 0 -92
5 -120 11 -62 13 -66 36 -13 76 83 63 145 151 200 288 31 75 33 88 33 202 0
67 3 128 6 137 12 31 48 16 113 -48z m4960 -2092 c35 -45 43 -121 46 -467 1
-183 6 -366 10 -407 10 -103 -1 -117 -137 -160 -148 -47 -255 -97 -408 -190
-73 -45 -147 -87 -162 -92 -51 -18 -97 -1 -162 61 -34 32 -104 95 -156 141
-152 131 -371 375 -419 465 -23 43 -26 76 -11 105 10 19 151 130 165 130 3 0
39 21 78 46 40 26 144 82 232 125 88 43 199 99 246 124 48 25 106 49 130 54
24 6 79 19 123 31 95 27 282 57 353 59 44 1 54 -3 72 -25z m-4120 -483 c24
-34 46 -83 111 -251 26 -69 94 -215 150 -325 56 -110 116 -227 133 -260 23
-45 31 -77 35 -131 4 -67 3 -74 -24 -109 -20 -25 -59 -52 -124 -84 -52 -27
-151 -81 -220 -121 -163 -95 -335 -191 -385 -214 -22 -10 -125 -61 -230 -113
-199 -99 -557 -263 -575 -263 -14 0 -296 430 -400 609 -9 14 -41 70 -73 124
-41 69 -56 104 -52 118 7 22 72 71 210 159 48 30 97 67 110 83 13 15 28 27 34
27 5 0 20 9 33 20 72 60 201 152 231 163 9 3 17 11 17 16 0 5 24 21 53 36 64
34 241 147 245 157 2 5 40 30 85 57 127 75 221 136 236 155 8 9 29 23 48 31
18 8 36 21 39 30 3 8 10 15 16 15 5 0 24 11 42 25 18 14 37 25 43 25 5 0 18 9
27 19 18 20 45 26 123 29 35 2 45 -2 62 -27z m5906 -239 c93 -105 355 -558
355 -615 0 -11 8 -50 19 -86 46 -165 82 -376 97 -582 10 -126 12 -125 -205
-134 -190 -8 -214 -2 -227 53 -4 15 -22 52 -40 83 -31 51 -72 141 -112 245
-22 58 -6 90 83 163 94 78 175 175 175 210 0 18 -96 122 -140 152 -25 16 -74
38 -110 49 -75 22 -354 46 -431 37 -101 -12 -119 32 -36 87 29 19 79 59 112
88 33 30 97 80 143 112 45 33 112 88 148 122 36 35 71 65 77 67 17 6 64 -20
92 -51z m-1143 -346 c50 -15 58 -21 68 -51 9 -28 9 -41 -3 -64 l-14 -29 66 -7
c117 -12 346 -15 506 -6 132 7 163 6 196 -7 29 -11 39 -21 39 -37 0 -30 -51
-65 -113 -75 -124 -21 -198 -41 -270 -74 -42 -20 -82 -36 -88 -36 -13 0 -230
-107 -243 -121 -6 -5 -18 -9 -27 -9 -27 0 -119 -51 -119 -67 0 -29 34 -24 138
22 59 26 125 56 147 66 22 9 72 32 110 49 186 85 273 115 519 181 193 51 296
37 296 -40 0 -23 -10 -36 -47 -63 -48 -34 -200 -128 -208 -128 -2 0 -36 -19
-77 -43 -67 -40 -186 -99 -233 -117 -68 -26 -113 -40 -130 -40 -10 0 -50 -9
-89 -21 -119 -35 -129 -37 -192 -44 -82 -9 -95 -18 -68 -46 20 -20 25 -20 95
-9 41 6 108 15 149 20 92 10 243 37 290 51 19 6 60 22 90 36 118 55 185 38
210 -54 18 -67 45 -117 100 -189 27 -35 58 -89 70 -121 12 -32 28 -66 37 -75
8 -9 12 -21 9 -27 -4 -6 6 -39 22 -73 16 -35 39 -90 51 -123 13 -33 29 -73 37
-90 32 -71 54 -128 54 -141 0 -7 20 -73 45 -146 60 -181 62 -187 76 -238 7
-25 16 -49 21 -54 4 -6 8 -20 8 -33 0 -13 4 -31 9 -41 16 -32 31 -88 31 -118
0 -17 4 -34 8 -39 5 -6 17 -82 27 -170 9 -88 21 -175 26 -193 4 -19 6 -39 3
-46 -3 -7 0 -35 6 -62 6 -27 14 -71 16 -98 3 -27 8 -54 12 -60 4 -6 10 -121
14 -256 3 -135 11 -274 17 -310 13 -76 30 -208 37 -300 4 -36 1 -159 -6 -275
-7 -115 -14 -284 -16 -375 -8 -348 -33 -626 -72 -785 -45 -182 -47 -192 -86
-425 -47 -276 -76 -379 -157 -557 -15 -34 -34 -81 -42 -105 -66 -193 -137
-345 -248 -531 -33 -54 -59 -100 -59 -102 0 -13 -170 -241 -258 -345 -77 -91
-213 -207 -296 -251 -54 -29 -98 -58 -186 -120 -14 -10 -47 -25 -74 -34 -26
-9 -76 -33 -110 -54 -136 -84 -205 -111 -296 -117 -105 -6 -120 1 -102 50 11
30 11 40 -4 67 -18 35 -16 129 6 254 5 33 7 105 4 160 -9 137 -37 178 -83 119
-17 -21 -20 -40 -20 -117 0 -128 -32 -245 -115 -414 -24 -48 -55 -105 -69
-127 -15 -21 -38 -64 -52 -95 -42 -91 -178 -363 -201 -401 -11 -19 -26 -53
-32 -75 -11 -43 -69 -217 -82 -250 -5 -11 -11 -38 -15 -60 -24 -138 -37 -199
-80 -345 -18 -62 -31 -130 -45 -237 -19 -141 -69 -314 -140 -478 -23 -53 -32
-145 -26 -265 4 -69 11 -138 16 -155 5 -16 18 -77 30 -135 30 -151 47 -211 96
-337 24 -61 44 -113 44 -116 0 -17 77 -130 120 -177 28 -30 61 -75 74 -100 13
-25 33 -53 44 -64 33 -29 37 -70 12 -121 -12 -25 -27 -45 -34 -45 -7 0 -39
-16 -72 -36 -124 -76 -167 -96 -258 -118 -51 -13 -105 -31 -120 -41 -21 -14
-42 -17 -111 -13 -112 6 -114 7 -195 179 -20 43 -49 92 -64 110 -64 79 -152
196 -164 219 -19 40 -52 208 -52 271 0 31 6 68 13 82 18 34 16 515 -2 607 -25
123 -44 205 -50 215 -42 64 -62 262 -41 408 20 137 32 182 64 244 l33 61 -25
32 c-24 31 -25 34 -17 148 12 181 9 219 -24 287 -16 33 -41 93 -55 133 -14 40
-34 85 -46 100 -12 15 -43 55 -69 89 -26 34 -67 95 -91 135 -24 40 -56 89 -70
108 -58 78 -100 187 -100 260 0 84 -27 154 -55 144 -19 -8 -55 -97 -55 -137 0
-18 9 -67 20 -108 12 -41 32 -114 45 -164 15 -53 25 -118 25 -157 0 -79 -4
-83 -100 -93 -36 -4 -78 -13 -95 -20 -16 -7 -46 -18 -65 -25 -19 -8 -42 -20
-51 -27 -10 -9 -26 -12 -42 -8 -31 8 -136 -17 -195 -45 -22 -11 -46 -20 -52
-20 -7 0 -24 -6 -38 -14 -102 -52 -333 -100 -561 -116 -80 -6 -191 -14 -246
-20 -378 -35 -725 -36 -920 -1 -380 68 -405 71 -662 81 -142 6 -363 20 -492
30 -128 11 -304 20 -391 20 -136 0 -161 2 -178 18 -35 28 -37 63 -6 107 14 22
32 56 39 76 21 58 45 101 82 144 143 168 227 329 193 370 -7 8 -16 15 -20 15
-5 0 -35 -44 -68 -97 -34 -54 -107 -152 -164 -217 -57 -65 -125 -149 -153
-186 -65 -88 -124 -164 -169 -220 -20 -25 -36 -48 -36 -53 0 -30 -152 -186
-256 -262 -21 -16 -91 -79 -154 -140 -97 -92 -217 -193 -247 -207 -15 -6 -119
-132 -159 -193 -69 -103 -274 -493 -274 -522 0 -4 -13 -35 -29 -68 -16 -33
-32 -85 -35 -115 -5 -50 -29 -845 -27 -916 2 -104 104 -293 245 -454 43 -50
85 -114 123 -189 34 -67 68 -120 83 -129 14 -9 41 -32 60 -50 19 -18 66 -55
105 -81 38 -26 76 -59 84 -72 19 -35 8 -77 -24 -85 -35 -9 -120 14 -187 49
l-56 30 -47 -22 c-42 -20 -108 -42 -259 -87 -61 -18 -105 -18 -153 0 -21 7
-56 19 -79 25 -23 6 -58 24 -78 41 -21 16 -45 32 -54 35 -16 5 -49 39 -160
165 -87 100 -123 149 -147 203 -14 30 -34 62 -45 72 -11 10 -20 30 -20 44 0
14 -7 37 -15 51 -67 115 -102 213 -111 313 -3 27 -10 60 -15 75 -6 15 -13 151
-15 317 -4 205 -10 312 -20 365 -9 41 -20 98 -26 125 -5 28 -13 59 -18 70 -4
11 -24 70 -43 130 -20 61 -48 144 -62 185 -26 71 -27 82 -22 210 7 173 20 214
110 335 12 17 47 64 78 105 31 41 68 101 83 132 15 32 31 60 36 63 14 9 63 85
86 135 31 65 68 226 66 290 0 30 -8 82 -17 115 -10 40 -13 78 -9 113 4 33 2
57 -5 65 -6 9 -11 63 -11 138 -1 75 -7 142 -15 169 -13 42 -23 106 -59 380
-48 362 -47 645 3 738 12 23 7 44 -52 197 -7 18 -12 84 -11 160 0 123 10 181
42 265 16 42 25 140 23 248 -2 101 -3 103 -42 163 -58 87 -63 147 -19 226 49
86 80 124 239 287 174 176 253 239 406 321 28 15 61 37 75 49 44 38 109 86
116 86 4 0 21 10 38 23 17 13 69 42 115 66 46 23 96 51 112 61 15 11 34 20 43
20 9 0 36 10 59 22 53 28 107 48 130 48 10 0 39 9 65 19 26 11 59 22 73 25 15
3 41 19 58 35 23 22 44 31 84 35 120 13 153 17 172 25 43 17 92 31 113 31 11
0 24 5 27 10 3 6 23 10 44 10 42 0 145 17 176 30 11 4 34 13 50 20 80 32 121
40 231 44 65 3 137 10 159 17 41 13 339 29 550 31 119 1 191 -7 210 -22 6 -5
71 -8 147 -7 85 1 141 -3 150 -10 8 -7 90 -13 203 -17 105 -3 199 -7 210 -8
47 -3 266 16 271 24 3 4 38 8 77 8 86 0 235 18 259 31 10 5 42 9 73 9 59 0
135 15 175 35 46 23 132 38 214 37 80 0 172 14 190 30 6 4 29 8 51 8 23 0 64
7 91 15 28 8 95 24 150 35 54 11 113 25 129 30 158 50 277 81 365 95 58 9 145
28 193 41 84 23 112 34 202 83 22 12 65 33 95 46 30 14 64 31 75 38 11 7 48
29 82 49 35 21 91 59 126 85 77 58 147 107 207 146 101 66 170 138 270 283 8
12 42 57 74 99 96 125 102 134 166 264 71 143 88 217 69 310 -24 118 -26 107
28 126 52 18 108 33 161 42 18 3 35 9 38 14 3 5 13 9 23 9 10 0 26 9 36 20 28
31 -4 36 -72 10 -32 -12 -78 -25 -103 -30 -25 -5 -72 -13 -105 -20 -33 -6 -87
-15 -120 -21 -33 -5 -85 -14 -115 -19 -237 -40 -661 -69 -902 -62 -7 0 -62 -2
-121 -5 -93 -4 -112 -2 -128 13 -25 22 -24 36 4 77 51 76 106 136 187 206 l45
39 -28 8 c-22 5 -49 -2 -112 -30 -78 -33 -91 -36 -182 -36 -54 0 -108 3 -121
6 -44 12 -67 100 -39 153 8 17 34 31 89 51 43 15 95 39 116 53 21 15 43 27 48
27 6 0 30 16 53 37 36 30 40 38 27 45 -11 6 -27 4 -48 -6 -17 -9 -38 -16 -47
-16 -9 0 -42 -9 -74 -20 -73 -26 -143 -27 -156 -2 -18 33 5 90 72 179 36 49
75 106 88 128 44 76 157 222 306 396 57 66 109 127 115 136 7 9 50 52 94 97
99 99 251 269 322 361 64 83 150 157 372 320 119 87 334 184 450 204 41 7 94
17 117 22 23 5 55 9 70 9 16 0 33 4 39 9 5 5 38 12 74 15 36 4 92 11 125 16
89 12 252 5 317 -14z m-7215 -745 c10 -15 36 -55 57 -87 55 -82 156 -263 241
-429 39 -77 88 -166 108 -199 21 -32 37 -65 35 -74 -2 -11 -39 -29 -108 -53
-58 -20 -136 -47 -175 -61 -38 -14 -90 -31 -115 -38 -25 -7 -56 -16 -70 -21
-25 -8 -143 -35 -275 -64 -132 -28 -210 -46 -240 -55 -93 -26 -136 -40 -185
-60 -101 -40 -173 -60 -191 -55 -10 3 -21 16 -25 28 -7 23 -65 105 -194 274
-22 29 -40 56 -40 60 0 3 -24 43 -54 87 -29 45 -61 96 -70 114 -9 17 -21 32
-27 32 -5 0 -14 10 -19 23 -5 12 -18 36 -29 52 -15 21 -21 46 -21 86 0 50 3
57 30 77 16 12 35 22 42 22 8 0 22 6 33 14 11 7 49 23 85 35 36 13 70 27 76
32 21 18 142 52 379 109 50 12 104 26 120 31 17 5 71 18 120 29 78 18 169 45
365 105 25 8 64 14 87 14 35 1 44 -3 60 -28z m5029 -385 c9 -24 -46 -94 -207
-259 -169 -173 -193 -187 -204 -119 -4 20 -18 76 -31 124 -26 95 -31 180 -11
195 6 5 93 22 192 37 99 15 187 29 195 31 37 7 61 4 66 -9z m-6490 -63 c3 -10
18 -46 35 -81 16 -34 29 -67 29 -72 0 -6 16 -33 35 -60 19 -27 35 -53 35 -58
0 -14 49 -110 59 -116 11 -7 71 -94 71 -103 0 -3 31 -51 68 -107 98 -145 122
-189 122 -224 0 -28 13 -85 39 -170 14 -47 4 -86 -27 -106 -15 -9 -45 -30 -67
-46 -22 -16 -47 -29 -57 -30 -9 0 -18 -4 -20 -9 -1 -5 -36 -26 -77 -47 -40
-22 -90 -48 -110 -59 -20 -11 -72 -40 -116 -64 -85 -47 -122 -68 -182 -103
-21 -12 -83 -44 -138 -72 -55 -29 -129 -72 -164 -96 -35 -25 -74 -52 -87 -61
-12 -8 -45 -34 -71 -56 -26 -23 -79 -68 -118 -101 -72 -62 -122 -111 -199
-197 -45 -50 -66 -64 -166 -105 -113 -46 -122 -51 -127 -70 -3 -11 -13 -22
-22 -25 -9 -2 -41 -25 -71 -50 -30 -25 -60 -45 -65 -45 -6 0 -17 -9 -25 -20
-8 -11 -19 -20 -25 -20 -6 0 -34 -22 -62 -50 -28 -27 -60 -50 -70 -50 -40 0
-264 266 -326 386 -9 18 -28 67 -43 110 -14 44 -37 100 -50 126 -13 26 -42 94
-64 150 -46 119 -46 159 1 204 16 15 29 33 29 38 1 15 61 79 87 91 21 10 105
106 140 160 45 72 351 367 424 410 9 6 52 37 94 70 42 33 87 67 100 75 31 20
139 99 175 128 15 12 32 22 37 22 6 0 18 9 28 20 10 11 21 20 25 20 3 0 60 36
126 80 65 44 124 80 130 80 6 0 19 9 29 20 10 11 22 20 28 20 5 0 29 14 54 30
24 17 46 30 49 30 2 0 23 12 47 27 23 15 89 51 147 81 58 30 117 63 132 73 14
11 33 19 41 19 9 0 19 5 22 10 3 6 29 10 56 10 39 0 51 -4 55 -17z m4761 -128
c50 -25 199 -271 262 -432 46 -117 90 -209 155 -320 48 -83 106 -235 106 -278
0 -35 -31 -66 -99 -100 -221 -108 -580 -291 -601 -305 -14 -9 -50 -31 -80 -47
-30 -17 -93 -53 -140 -81 -47 -28 -160 -89 -252 -136 -158 -81 -254 -141 -306
-193 -12 -13 -29 -23 -38 -23 -31 0 -70 54 -94 130 -24 75 -111 254 -240 490
-38 69 -106 201 -152 294 l-83 169 27 20 c15 11 92 54 170 95 302 156 537 286
673 372 50 32 180 105 290 163 110 58 234 126 275 151 41 25 79 46 86 46 6 0
25 -7 41 -15z m-6711 -842 c35 -19 43 -30 59 -79 17 -53 17 -58 0 -93 -27 -57
-97 -151 -200 -268 -53 -60 -107 -132 -122 -161 -14 -30 -36 -60 -49 -69 -35
-23 -37 -46 -9 -106 14 -31 25 -58 25 -61 0 -10 223 -331 232 -334 4 -2 8 -9
8 -15 0 -10 68 -104 112 -156 13 -15 68 -90 110 -148 13 -18 47 -53 76 -78 28
-26 52 -51 52 -57 0 -6 25 -37 55 -70 52 -55 55 -62 55 -109 0 -54 -13 -72
-75 -105 -35 -19 -85 -64 -85 -76 0 -5 -13 -26 -29 -46 -32 -40 -121 -209
-121 -230 0 -7 -4 -20 -9 -30 -5 -9 -16 -32 -23 -51 -44 -116 -70 -141 -144
-141 -76 0 -198 54 -444 197 -52 31 -135 79 -185 108 -49 29 -121 69 -160 90
-69 36 -85 46 -195 119 -67 43 -234 203 -284 270 -91 121 -119 281 -68 381 17
34 221 235 238 235 6 0 19 10 30 21 21 24 148 109 162 109 4 0 21 14 37 30 16
17 34 30 41 30 14 0 154 140 154 154 0 5 6 17 14 25 7 9 24 45 36 80 19 55 22
77 16 146 -3 45 -11 96 -17 114 -14 39 -4 168 14 204 18 35 113 119 172 152
42 25 66 30 150 36 55 4 152 6 215 5 96 -2 122 -5 156 -23z m2564 -255 c18
-18 82 -109 143 -201 98 -150 108 -171 99 -192 -17 -37 -197 -220 -302 -305
-52 -43 -135 -113 -185 -155 -156 -132 -450 -321 -625 -402 -171 -78 -231 -95
-454 -124 -83 -11 -191 -26 -241 -33 -49 -8 -122 -17 -161 -21 -67 -6 -72 -5
-102 20 -51 43 -45 71 47 207 127 187 217 287 491 546 166 157 410 322 656
442 112 55 251 130 310 166 133 82 134 83 221 83 67 1 73 -1 103 -31z m1799
-35 c19 -17 195 -361 320 -628 31 -66 101 -198 155 -293 80 -141 96 -175 86
-187 -7 -8 -21 -15 -31 -15 -10 0 -21 -4 -24 -10 -3 -5 -17 -10 -30 -10 -13 0
-27 -4 -30 -10 -3 -5 -19 -10 -35 -10 -16 0 -32 -4 -35 -10 -3 -5 -17 -10 -29
-10 -13 0 -40 -7 -59 -15 -20 -8 -50 -15 -67 -15 -17 0 -38 -4 -48 -10 -21
-11 -118 -34 -227 -54 -172 -31 -280 -39 -490 -34 l-210 5 -64 33 c-69 36 -66
32 -183 290 -106 234 -157 335 -216 430 -44 70 -52 91 -50 123 l3 39 100 40
c55 22 150 55 210 73 103 31 207 68 282 101 54 24 109 42 180 59 160 37 208
51 338 96 129 44 127 44 154 22z m2901 -88 c7 -9 10 -28 5 -53 -5 -31 -2 -41
14 -57 12 -10 21 -24 21 -31 0 -7 11 -26 25 -42 14 -17 25 -34 25 -40 0 -5 7
-15 16 -23 8 -7 36 -53 60 -103 25 -50 56 -111 69 -135 14 -24 25 -48 25 -52
0 -5 11 -25 25 -45 14 -21 28 -49 32 -63 3 -14 13 -34 21 -44 39 -44 95 -147
198 -362 13 -28 26 -79 30 -115 3 -38 16 -85 30 -112 26 -52 31 -113 10 -140
-34 -45 -205 -90 -551 -143 -55 -8 -149 -24 -210 -35 -185 -32 -217 -37 -510
-69 -49 -6 -148 -18 -220 -27 -116 -15 -169 -15 -515 -5 -212 7 -441 17 -510
22 -377 29 -658 29 -835 0 -120 -20 -261 -42 -323 -52 -35 -5 -76 -16 -92 -24
-16 -8 -55 -21 -87 -29 -32 -8 -130 -36 -218 -64 -88 -27 -200 -61 -250 -75
-49 -14 -160 -48 -245 -75 -144 -46 -166 -57 -306 -146 -83 -53 -182 -123
-220 -156 -38 -33 -121 -97 -184 -142 -63 -45 -158 -113 -210 -152 -114 -84
-464 -430 -508 -502 -45 -72 -107 -116 -267 -185 -53 -24 -106 -55 -130 -78
-87 -83 -111 -87 -178 -36 -103 79 -226 106 -395 87 -143 -16 -340 -15 -372 1
-19 9 -26 22 -28 51 -3 36 1 43 66 106 38 38 129 107 202 156 148 97 273 212
375 349 150 200 222 240 555 305 183 36 416 103 495 143 87 43 184 133 336
308 95 110 233 288 262 339 32 56 184 200 262 248 129 79 288 90 525 37 105
-23 149 -28 275 -29 83 -1 188 4 235 11 47 7 141 19 210 27 146 16 462 82 640
132 69 19 150 42 180 50 184 50 467 177 573 258 26 20 51 36 56 36 5 0 31 15
57 33 27 19 61 37 76 40 14 4 40 18 56 32 17 14 37 25 45 25 8 0 37 15 63 33
27 19 61 37 76 40 14 4 39 17 55 30 15 13 44 29 63 37 19 8 48 24 63 37 16 13
34 23 41 23 7 0 30 13 52 28 21 16 55 35 74 42 19 7 44 21 55 31 11 9 38 24
59 33 22 9 46 25 53 36 8 11 22 20 31 20 10 0 42 16 72 35 30 20 75 41 98 48
24 6 48 20 53 29 5 10 19 18 30 18 25 0 124 46 214 99 74 44 105 50 125 26z
m-4255 -410 c48 -36 102 -124 147 -238 21 -56 75 -173 119 -259 43 -86 79
-163 79 -171 0 -15 -12 -18 -130 -36 -62 -9 -143 -38 -183 -64 -14 -9 -29 -17
-32 -17 -20 0 -158 -128 -205 -190 -30 -39 -67 -87 -82 -105 -16 -18 -28 -36
-28 -41 0 -4 -12 -20 -26 -35 -15 -15 -32 -37 -38 -47 -60 -106 -145 -209
-302 -368 -105 -107 -129 -125 -204 -161 -47 -22 -96 -44 -110 -47 -14 -4 -34
-11 -45 -16 -11 -5 -56 -14 -100 -19 -44 -5 -102 -15 -130 -21 -27 -6 -97 -15
-155 -20 -58 -5 -141 -14 -185 -20 -44 -6 -101 -8 -128 -5 -78 10 -327 6 -386
-5 -67 -13 -169 -45 -231 -73 -111 -48 -292 -143 -342 -178 -14 -11 -29 -19
-33 -19 -4 0 -52 -29 -106 -65 -55 -36 -102 -65 -105 -65 -9 0 -169 -123 -173
-133 -2 -5 -30 -40 -62 -78 -33 -37 -59 -72 -59 -77 0 -17 -37 -43 -53 -37
-17 7 -138 147 -156 182 -16 31 -14 65 9 126 18 48 30 61 98 110 43 31 87 66
98 78 10 12 28 25 39 30 49 21 165 101 195 134 14 15 48 38 76 51 47 21 53 27
77 86 13 35 30 106 37 158 6 52 16 109 21 126 5 17 9 39 9 49 0 28 29 113 55
165 21 39 96 123 142 159 43 33 151 101 161 101 3 0 30 12 61 26 108 50 204
79 311 93 41 6 127 17 190 25 63 8 167 22 230 30 63 9 148 18 188 22 40 4 75
11 78 15 3 5 14 9 25 9 10 0 27 4 37 9 9 5 42 21 74 35 31 15 86 47 123 71 37
25 68 45 70 45 5 0 104 68 190 130 39 27 86 61 107 75 20 13 39 29 43 35 4 6
17 16 28 21 37 17 170 115 329 244 252 205 280 219 343 170z m-3866 -1401 c49
-24 108 -58 319 -188 83 -51 229 -126 299 -154 55 -22 84 -27 153 -27 83 0 85
-1 89 -25 6 -48 -54 -120 -101 -120 -8 0 -23 -9 -33 -20 -10 -11 -22 -20 -27
-20 -4 0 -33 -20 -64 -45 -33 -28 -65 -45 -81 -45 -47 0 -162 -139 -195 -235
-22 -65 -23 -187 -2 -256 19 -61 75 -121 151 -160 25 -13 51 -33 58 -44 8 -12
15 -69 18 -145 3 -69 12 -181 20 -250 17 -144 9 -221 -30 -310 -27 -61 -55
-95 -95 -116 -31 -16 -104 -19 -113 -4 -3 5 -32 22 -63 38 -56 28 -131 72
-203 119 -19 13 -39 23 -43 23 -4 0 -28 14 -53 30 -25 17 -67 42 -93 55 -27
14 -51 29 -55 35 -3 5 -13 10 -22 10 -8 0 -35 14 -60 30 -24 17 -46 30 -48 30
-20 0 -177 122 -245 190 -138 138 -192 248 -192 393 0 48 4 93 10 100 5 6 13
28 17 47 11 58 82 195 146 283 33 45 71 98 83 117 13 19 38 48 55 64 17 17 31
34 31 39 0 5 15 27 34 50 19 23 54 74 79 112 26 39 55 82 66 97 12 14 21 32
21 40 0 7 9 24 20 38 11 14 20 32 20 41 0 9 7 30 15 45 9 17 15 52 14 84 0 30
0 61 0 68 1 19 40 14 100 -14z m1969 -570 c19 -13 22 -24 22 -85 0 -63 -2 -70
-22 -78 -13 -5 -34 -21 -47 -35 -14 -14 -30 -26 -36 -26 -19 0 -42 -32 -48
-66 -7 -36 -47 -84 -70 -84 -8 0 -34 -16 -57 -35 -23 -19 -50 -35 -59 -35 -10
0 -26 -9 -35 -19 -10 -11 -41 -31 -69 -44 -29 -14 -61 -34 -71 -46 -11 -11
-24 -21 -31 -21 -7 0 -20 -9 -30 -20 -12 -13 -31 -20 -57 -20 l-38 0 0 108 c0
83 -4 113 -16 131 -12 16 -15 37 -12 72 5 46 10 54 74 114 38 35 77 67 87 70
9 4 17 13 17 21 0 8 8 17 18 20 21 8 72 29 137 59 73 34 70 33 200 34 94 1
125 -2 143 -15z m-781 -496 c31 -29 59 -94 68 -155 6 -45 4 -56 -14 -79 -12
-15 -25 -43 -31 -64 -5 -20 -20 -48 -32 -61 -23 -24 -25 -24 -143 -17 -149 8
-202 19 -271 59 -74 42 -80 56 -49 123 39 86 185 206 251 206 10 0 26 5 34 11
26 18 161 1 187 -23z m-436 -405 c63 -32 120 -47 279 -71 64 -10 121 -22 128
-26 7 -4 187 -7 400 -7 371 0 389 -1 442 -21 67 -26 90 -44 90 -73 0 -13 7
-28 15 -35 8 -7 15 -25 15 -40 0 -42 -49 -222 -68 -250 -9 -14 -35 -63 -58
-110 -22 -47 -57 -110 -77 -141 -20 -31 -56 -102 -81 -159 -90 -204 -170 -305
-261 -328 -142 -36 -241 -21 -490 73 -38 15 -124 44 -190 66 -66 22 -125 45
-131 52 -6 7 -19 77 -28 157 -9 80 -22 181 -28 225 -5 44 -14 195 -19 335 -5
140 -11 276 -15 303 -6 48 -1 77 14 77 4 0 33 -12 63 -27z m2048 13 c50 -26
71 -100 78 -271 3 -63 0 -126 -6 -147 -6 -21 -16 -57 -22 -80 -21 -78 -37
-122 -68 -190 -17 -37 -31 -76 -31 -87 0 -11 -4 -23 -10 -26 -5 -3 -10 -18
-10 -32 0 -15 -4 -40 -9 -57 -5 -17 -14 -50 -20 -73 -22 -85 -30 -119 -46
-178 -49 -184 -57 -209 -66 -227 -5 -10 -9 -25 -9 -33 0 -8 -4 -23 -10 -33
-17 -31 -77 -216 -90 -277 -7 -33 -16 -71 -20 -85 -4 -14 -12 -43 -18 -65 -38
-149 -70 -242 -112 -330 -26 -55 -51 -116 -55 -135 -9 -45 -62 -210 -75 -232
-6 -10 -10 -27 -10 -37 0 -11 -4 -23 -10 -26 -5 -3 -10 -16 -10 -29 0 -12 -4
-26 -9 -32 -16 -17 -68 -196 -90 -309 -6 -33 -18 -95 -26 -137 -21 -107 -19
-164 11 -303 13 -66 30 -145 36 -175 9 -47 14 -555 7 -695 -2 -22 1 -83 6
-135 6 -81 5 -97 -8 -109 -26 -21 -51 -8 -74 39 -31 67 -59 132 -68 160 -4 14
-21 50 -36 81 -16 31 -29 62 -29 68 0 6 -4 19 -8 29 -5 9 -21 42 -36 74 -15
31 -42 73 -60 95 -18 21 -40 52 -49 70 -9 17 -30 41 -47 53 -17 12 -38 36 -47
53 -9 18 -35 53 -58 79 -23 26 -53 73 -65 105 -13 32 -31 67 -41 78 -36 42
-59 100 -59 150 0 28 -4 55 -9 60 -5 6 -11 60 -13 121 -2 89 -7 116 -20 131
-10 11 -18 28 -18 39 0 11 -4 24 -9 30 -16 15 -25 350 -12 421 7 34 16 109 21
166 5 57 19 137 30 178 12 41 24 83 27 94 2 11 8 29 13 40 5 11 11 31 13 45
10 50 57 229 66 252 5 13 19 57 31 98 28 93 76 212 146 356 30 61 54 114 54
118 0 4 14 27 30 51 17 24 57 100 90 169 33 69 99 189 147 268 108 177 135
230 163 310 30 84 84 159 142 198 26 17 48 35 48 41 0 13 97 110 131 131 14 9
45 22 69 28 24 7 62 27 84 46 32 27 48 34 83 34 24 0 56 -6 72 -14z m-2473
-963 c25 -21 70 -62 101 -90 31 -29 60 -53 64 -53 4 0 14 -6 21 -13 7 -6 44
-39 82 -72 38 -33 87 -82 108 -110 118 -152 202 -242 339 -361 64 -56 134
-114 155 -130 22 -16 57 -43 78 -61 22 -18 49 -33 61 -33 35 0 45 -20 45 -91
0 -76 -34 -198 -81 -292 -16 -32 -29 -62 -29 -67 0 -5 -12 -26 -26 -47 -14
-21 -30 -47 -35 -58 -5 -11 -13 -27 -18 -35 -5 -8 -21 -41 -36 -73 -51 -106
-137 -122 -253 -48 -84 53 -144 84 -271 137 -62 26 -134 61 -160 79 -111 75
-189 130 -228 162 -23 18 -48 33 -56 33 -21 0 -57 48 -57 76 0 16 -10 28 -32
38 -22 11 -41 32 -56 63 -13 27 -28 55 -33 63 -49 83 -49 82 -49 258 0 216 9
252 105 422 25 44 85 178 85 190 0 6 9 28 20 50 11 22 20 47 20 58 0 55 73 58
136 5z m609 -281 c44 -16 118 -45 165 -64 47 -20 101 -41 120 -46 57 -17 191
-41 245 -44 46 -3 50 -5 53 -30 2 -15 -8 -55 -22 -91 -14 -35 -26 -71 -26 -80
0 -9 -4 -19 -10 -22 -5 -3 -10 -16 -10 -28 0 -12 -7 -31 -15 -41 -8 -11 -15
-28 -15 -37 0 -32 -23 -69 -42 -69 -48 0 -137 64 -321 231 -131 120 -241 242
-258 288 -14 36 -2 61 29 61 15 0 63 -13 107 -28z m11587 -251 c13 -5 65 -50
116 -100 51 -50 96 -91 100 -91 16 0 301 -299 336 -352 20 -31 41 -60 46 -63
6 -3 10 -28 10 -56 0 -27 5 -49 10 -49 6 0 10 -11 10 -24 0 -14 5 -28 10 -31
6 -3 10 -21 10 -38 0 -18 6 -41 13 -52 7 -11 19 -40 26 -65 7 -25 17 -55 22
-68 13 -32 11 -192 -2 -233 -21 -65 -78 -188 -126 -269 -14 -25 -30 -63 -35
-85 -18 -88 -47 -216 -76 -330 -28 -116 -50 -214 -77 -360 -26 -133 -56 -230
-100 -320 -51 -107 -108 -175 -169 -205 l-45 -21 -38 20 c-21 11 -72 49 -113
85 -41 36 -107 90 -147 121 -103 79 -103 80 -17 232 53 93 68 153 44 168 -5 3
-10 37 -10 75 0 38 5 72 10 75 6 3 10 14 10 24 0 10 6 24 14 30 8 7 12 20 9
30 -2 9 3 23 11 30 9 8 16 22 16 32 0 11 5 19 10 19 6 0 10 14 10 30 0 17 5
30 10 30 6 0 10 13 10 29 0 17 5 33 10 36 6 3 10 21 10 40 0 19 5 37 10 40 6
4 10 60 10 135 0 75 -4 131 -10 135 -5 3 -10 39 -10 80 0 41 -4 77 -10 80 -5
3 -10 28 -10 55 0 39 -5 54 -29 79 -15 16 -34 44 -41 60 -7 17 -26 39 -42 49
-16 11 -35 30 -41 43 -7 14 -41 38 -82 59 -39 19 -91 50 -117 68 -89 62 -281
145 -362 156 -64 10 -96 41 -96 94 0 21 6 46 13 55 6 8 48 30 92 47 44 18 94
40 110 50 17 10 59 34 95 54 86 46 230 151 349 254 131 112 182 136 243 113z
m-1275 -637 c37 -28 211 -372 293 -579 27 -70 72 -169 99 -220 82 -151 135
-257 160 -315 54 -130 100 -226 176 -370 32 -61 45 -97 45 -128 0 -91 -75
-162 -171 -162 -21 0 -41 5 -44 10 -3 6 -14 10 -24 10 -10 0 -30 15 -45 34
-24 32 -150 281 -190 376 -10 25 -56 119 -100 210 -45 91 -97 203 -116 250
-19 47 -65 147 -102 222 -37 76 -68 140 -68 142 0 3 -27 63 -61 133 -89 187
-92 197 -87 258 6 66 41 116 101 144 50 23 88 19 134 -15z m230 -55 c23 -4 58
-15 78 -24 21 -8 46 -15 57 -15 86 0 406 -157 513 -252 82 -74 197 -257 231
-367 18 -59 18 -248 0 -321 -20 -81 -52 -160 -87 -215 -18 -28 -42 -68 -54
-90 -12 -22 -38 -49 -58 -60 -34 -19 -37 -19 -72 -2 -20 9 -44 31 -53 48 -9
17 -41 72 -71 122 -48 83 -187 373 -271 567 -62 143 -200 430 -260 538 -40 73
-43 100 -11 86 9 -3 35 -10 58 -15z m-5917 -651 c74 -6 229 -14 345 -17 260
-7 257 -3 123 -140 -52 -53 -103 -109 -114 -125 -44 -65 -64 -102 -64 -118 0
-18 -111 -241 -133 -267 -6 -7 -16 -21 -22 -31 -5 -10 -23 -38 -40 -62 -32
-47 -60 -101 -99 -188 -13 -31 -31 -61 -39 -68 -13 -11 -11 -25 20 -114 44
-128 53 -141 185 -313 43 -55 90 -117 105 -138 94 -129 209 -259 426 -481 103
-106 187 -197 187 -202 0 -5 17 -27 38 -49 41 -43 140 -184 158 -225 35 -78
45 -110 42 -136 -3 -25 -13 -34 -72 -63 -40 -20 -93 -37 -130 -42 -88 -11
-150 -26 -198 -47 -24 -11 -52 -22 -63 -27 -77 -28 -302 -38 -368 -16 -21 7
-58 30 -82 51 -25 21 -53 41 -63 44 -21 7 -132 132 -132 148 0 6 -16 35 -35
64 -19 29 -35 56 -35 61 0 5 -13 22 -30 38 -16 16 -30 34 -30 41 0 6 -7 18
-17 25 -9 8 -40 63 -69 122 -28 60 -58 116 -66 125 -15 18 -65 119 -118 242
-18 41 -36 82 -41 90 -25 43 -59 115 -59 125 0 18 -29 71 -46 86 -8 7 -24 31
-34 54 -10 23 -26 48 -35 55 -8 7 -15 17 -15 22 0 6 -14 28 -31 50 -45 56 -94
203 -121 358 -15 85 -21 348 -9 379 6 14 13 38 15 53 5 33 40 136 65 193 17
39 34 95 51 165 5 19 13 54 20 77 6 24 13 72 17 108 3 36 11 72 17 81 23 31
287 37 596 12z m6689 -1287 c105 -40 291 -204 291 -258 0 -22 -13 -44 -121
-210 -26 -39 -59 -98 -74 -130 -15 -32 -41 -74 -56 -94 -16 -20 -29 -40 -29
-43 0 -12 -93 -152 -120 -181 -15 -16 -34 -48 -41 -69 -16 -44 -63 -79 -94
-70 -38 12 -58 42 -67 101 -4 32 -12 81 -18 108 -23 115 -31 187 -35 320 -2
77 -7 169 -10 205 -9 80 6 138 42 172 16 14 43 42 62 62 19 21 57 53 85 72 60
40 109 44 185 15z m268 -783 c53 -58 133 -201 208 -373 26 -60 166 -338 176
-351 5 -6 22 -44 39 -84 55 -134 37 -167 -103 -184 -97 -12 -107 -7 -170 99
-32 52 -57 98 -57 101 0 3 -8 18 -19 32 -10 15 -44 76 -75 136 -32 61 -72 130
-90 155 -72 99 -96 169 -96 285 0 107 18 144 89 181 58 30 72 31 98 3z m-1664
-631 c23 -27 71 -82 107 -122 80 -88 119 -163 131 -255 8 -58 7 -76 -6 -104
-29 -61 -89 -75 -415 -96 -186 -11 -297 -2 -360 30 -61 31 -177 144 -190 186
-14 41 0 91 33 123 24 21 189 90 269 111 56 15 115 49 208 121 42 32 87 62
100 67 38 14 76 -5 123 -61z m-4050 -69 c12 -7 43 -31 69 -54 28 -24 69 -48
102 -58 74 -24 106 -61 106 -125 0 -56 -22 -82 -90 -106 -25 -9 -59 -24 -78
-35 -18 -11 -63 -24 -100 -30 -37 -6 -87 -15 -112 -21 -25 -5 -115 -11 -200
-12 l-155 -2 -78 38 c-56 27 -86 49 -107 78 -72 99 -42 184 72 208 103 22 188
45 258 71 41 16 102 33 134 39 33 6 62 13 64 16 10 10 93 5 115 -7z m-2619
-644 l129 -19 31 -39 c17 -22 63 -72 103 -111 76 -75 92 -108 73 -154 -22 -53
-52 -60 -300 -64 -319 -6 -382 7 -483 100 -28 27 -65 57 -80 67 -34 21 -67 72
-67 104 0 44 50 78 137 91 83 13 145 27 178 42 27 12 126 6 279 -17z"/>
<path d="M8135 14762 c-45 -28 -61 -64 -45 -101 12 -30 58 -61 90 -61 32 0 78
30 90 60 16 39 0 79 -41 103 -39 22 -57 21 -94 -1z m89 -54 c15 -25 -4 -52
-38 -56 -47 -6 -74 36 -44 66 18 18 69 11 82 -10z"/>
<path d="M7589 14524 c-15 -8 -32 -28 -39 -45 -17 -39 1 -75 53 -104 34 -18
36 -18 75 -1 59 27 78 80 44 122 -35 44 -84 54 -133 28z m91 -49 c29 -35 -10
-76 -57 -59 -51 17 -38 74 17 74 15 0 33 -7 40 -15z"/>
<path d="M6879 14224 c-38 -20 -55 -66 -39 -104 12 -30 58 -60 90 -60 32 0 75
29 89 60 17 39 2 74 -44 102 -35 21 -59 21 -96 2z m95 -56 c15 -25 -4 -52 -38
-56 -47 -6 -74 36 -44 66 18 18 69 11 82 -10z"/>
<path d="M6295 14007 c-63 -37 -56 -118 12 -151 34 -16 39 -16 73 -1 20 9 45
30 54 47 17 28 17 31 1 62 -27 51 -93 71 -140 43z m83 -43 c12 -8 22 -20 22
-26 0 -19 -32 -48 -53 -48 -24 0 -57 27 -57 46 0 14 38 44 55 44 6 0 21 -7 33
-16z"/>
<path d="M12175 12430 c-11 -18 23 -22 95 -10 38 6 70 14 70 16 0 9 -159 3
-165 -6z"/>
<path d="M11535 11562 c-11 -10 -87 -37 -125 -46 -29 -6 -183 -161 -178 -177
2 -7 16 -1 33 12 55 44 72 49 169 49 53 0 98 4 101 10 3 6 14 10 25 10 16 0
41 10 133 56 41 20 165 19 188 -2 18 -17 49 -13 49 5 0 18 -83 59 -133 66 -26
4 -50 11 -53 16 -7 11 -197 12 -209 1z"/>
<path d="M10680 3233 c1 -26 41 -196 55 -231 29 -71 56 -49 32 26 -9 26 -21
79 -28 117 -6 39 -14 76 -17 83 -4 13 -42 17 -42 5z"/>
<path d="M3982 2968 c-6 -6 -12 -22 -12 -34 0 -25 -15 -73 -41 -131 -23 -51
-24 -63 -5 -63 24 0 63 79 86 177 9 39 -8 71 -28 51z"/>
<path d="M13554 4105 c-13 -33 130 -198 195 -225 28 -11 34 -11 42 1 14 22 11
26 -25 48 -34 21 -99 88 -149 154 -29 39 -54 47 -63 22z"/>
<path d="M6070 2859 c0 -95 -8 -134 -41 -204 -23 -49 -24 -62 -3 -45 16 14 35
54 60 128 18 52 16 203 -3 210 -10 3 -13 -19 -13 -89z"/>
</g>
</svg>
